<svg xmlns="http://www.w3.org/2000/svg" id="bold" height="512" viewBox="0 0 24 24" width="512"><path d="m8 11c-.553 0-1 .448-1 1v5.5c0 .551-.448 1-1 1h-.5v-.75c0-.642-.757-.987-1.244-.564l-2 1.75c-.162.142-.256.348-.256.564s.094.422.256.564l2 1.75c.483.423 1.244.083 1.244-.564v-.75h.5c1.654 0 3-1.346 3-3v-5.5c0-.552-.447-1-1-1z"></path><path d="m21.744 18.936-2-1.75c-.484-.421-1.244-.08-1.244.564v.75h-.5c-.552 0-1-.449-1-1v-5.5c0-.552-.447-1-1-1s-1 .448-1 1v5.5c0 1.654 1.346 3 3 3h.5v.75c0 .647.763.985 1.244.564l2-1.75c.162-.142.256-.348.256-.564s-.094-.422-.256-.564z"></path><path d="m13.75 20.5h-.75v-10.5c0-.552-.447-1-1-1s-1 .448-1 1v10.5h-.75c-.294 0-.562.172-.683.44-.122.268-.075.583.118.804l1.75 2c.143.163.349.256.565.256s.422-.093.564-.256l1.75-2c.193-.221.24-.536.118-.804-.12-.268-.388-.44-.682-.44z"></path><path d="m3.095 15.57c.555-.418 1.232-.617 1.905-.557v-3.013c0-1.654 1.346-3 3-3 .395 0 .77.081 1.116.22.346-1.275 1.501-2.22 2.884-2.22s2.539.945 2.884 2.22c.346-.139.721-.22 1.116-.22 1.654 0 3 1.346 3 3v3.013c.556-.05 1.115.069 1.602.343 2.011-.997 3.398-3.05 3.398-5.423 0-3.066-2.307-5.625-5.327-6.006-1.312-2.399-3.884-3.927-6.673-3.927-3.545 0-6.62 2.465-7.397 5.829-2.584.272-4.603 2.442-4.603 5.071 0 2.087 1.277 3.882 3.095 4.67z"></path></svg>