<?xml version="1.0" standalone="no"?>
<!DOCTYPE svg PUBLIC "-//W3C//DTD SVG 20010904//EN"
 "http://www.w3.org/TR/2001/REC-SVG-20010904/DTD/svg10.dtd">
<svg version="1.0" xmlns="http://www.w3.org/2000/svg"
 width="959.000000pt" height="283.000000pt" viewBox="0 0 959.000000 283.000000"
 preserveAspectRatio="xMidYMid meet">
<metadata>
Created by potrace 1.16, written by Peter Selinger 2001-2019
</metadata>
<g transform="translate(0.000000,283.000000) scale(0.100000,-0.100000)"
fill="#ffffff" stroke="none">
<path d="M1960 2054 c-286 -27 -566 -86 -869 -186 -206 -67 -403 -146 -779
-313 l-312 -138 0 -708 0 -709 4795 0 4795 0 -2 682 -3 682 -145 38 c-347 91
-664 155 -965 195 -186 24 -691 25 -861 0 -255 -36 -498 -94 -979 -232 -651
-187 -954 -245 -1279 -245 -301 0 -584 61 -960 207 -162 63 -252 102 -801 348
-480 215 -772 314 -1070 361 -97 15 -467 27 -565 18z"/>
</g>
</svg>
